<?xml version="1.0" standalone="no"?>
<!DOCTYPE svg PUBLIC "-//W3C//DTD SVG 20010904//EN"
 "http://www.w3.org/TR/2001/REC-SVG-20010904/DTD/svg10.dtd">
<svg version="1.0" xmlns="http://www.w3.org/2000/svg"
 width="260.000000pt" height="260.000000pt" viewBox="0 0 260.000000 260.000000"
 preserveAspectRatio="xMidYMid meet">
<metadata>
Created by potrace 1.11, written by Peter Selinger 2001-2013
</metadata>
<g transform="translate(0.000000,260.000000) scale(0.100000,-0.100000)"
fill="#000000" stroke="none">
<path d="M1258 2295 c-4 -16 -10 -41 -14 -55 -6 -23 -5 -24 10 -9 12 11 16 28
14 55 -3 39 -3 39 -10 9z"/>
<path d="M1331 2104 c0 -11 3 -14 6 -6 3 7 2 16 -1 19 -3 4 -6 -2 -5 -13z"/>
<path d="M1246 2011 c-10 -11 -14 -25 -10 -36 4 -10 3 -16 -2 -13 -5 4 -10 -4
-10 -17 -1 -13 -9 -38 -18 -56 -13 -26 -14 -34 -4 -41 10 -6 10 -8 1 -8 -7 0
-13 -11 -13 -25 0 -22 -2 -24 -19 -13 -11 7 -25 21 -31 33 -8 15 -9 16 -5 2 3
-11 2 -24 -2 -30 -5 -7 -14 -41 -21 -77 -7 -36 -16 -81 -20 -100 -6 -28 -3
-45 16 -82 14 -27 29 -45 36 -42 16 6 31 -13 40 -48 4 -19 2 -28 -6 -28 -7 -1
0 -8 15 -16 15 -8 25 -20 21 -25 -3 -6 1 -18 10 -28 10 -11 14 -25 10 -36 -5
-11 -3 -16 2 -12 11 6 19 -3 60 -68 l25 -40 -6 65 c-4 36 -10 82 -15 102 -5
27 -4 43 7 58 8 11 11 29 8 40 -4 12 -2 20 5 20 6 0 9 4 6 9 -4 5 -2 21 4 35
7 21 6 26 -5 26 -8 0 -15 7 -15 15 0 8 -6 15 -12 15 -9 0 -8 4 2 10 13 8 13
13 2 30 -7 11 -9 26 -5 33 10 16 12 47 2 42 -4 -3 -9 2 -13 10 -3 8 0 15 7 15
9 0 9 2 1 8 -8 4 -11 38 -10 95 1 48 -1 87 -4 87 -3 0 -6 25 -5 55 1 60 -3 65
-29 36z"/>
<path d="M1185 1960 c3 -5 8 -10 11 -10 2 0 4 5 4 10 0 6 -5 10 -11 10 -5 0
-7 -4 -4 -10z"/>
<path d="M1302 1795 c-11 -12 -10 -15 3 -15 8 0 15 7 15 15 0 18 -2 18 -18 0z"/>
<path d="M1519 1648 c-6 -11 -3 -58 3 -58 4 0 8 14 8 30 0 25 -6 38 -11 28z"/>
<path d="M971 1558 c-14 -23 -14 -23 8 -4 22 20 25 26 13 26 -4 0 -13 -10 -21
-22z"/>
<path d="M1020 1490 c-51 -96 -100 -200 -94 -200 3 0 -2 -7 -10 -16 -9 -8 -14
-20 -11 -25 4 -5 2 -9 -4 -9 -5 0 -12 -8 -15 -18 -4 -10 -22 -44 -40 -75 -19
-31 -31 -58 -28 -60 31 -17 38 -14 39 17 0 17 10 43 23 57 22 24 38 61 67 152
8 26 19 47 25 47 6 0 9 3 5 6 -8 9 21 64 34 64 6 0 8 4 5 9 -10 15 56 41 76
30 27 -14 23 6 -6 28 -13 11 -25 28 -27 38 -3 13 -14 0 -39 -45z"/>
<path d="M960 1505 c-7 -9 -10 -18 -7 -21 3 -3 10 4 17 15 13 25 8 27 -10 6z"/>
<path d="M1426 1491 c-4 -6 -3 -18 2 -27 8 -15 10 -14 16 2 8 20 -8 42 -18 25z"/>
<path d="M1150 1470 c0 -5 5 -10 11 -10 5 0 7 5 4 10 -3 6 -8 10 -11 10 -2 0
-4 -4 -4 -10z"/>
<path d="M1422 1405 c1 -20 5 -38 10 -41 4 -3 5 -10 2 -16 -4 -7 -2 -8 4 -4 7
4 12 2 12 -3 0 -6 4 -11 9 -11 6 0 4 12 -4 27 -8 15 -11 31 -8 36 3 5 -1 13
-8 18 -11 7 -11 9 -1 9 7 0 10 5 7 10 -13 21 -24 9 -23 -25z"/>
<path d="M1545 1270 c3 -5 8 -10 11 -10 2 0 4 5 4 10 0 6 -5 10 -11 10 -5 0
-7 -4 -4 -10z"/>
<path d="M1610 1252 c0 -4 18 -28 40 -52 l39 -45 -9 35 c-5 19 -19 43 -31 53
-23 18 -39 22 -39 9z"/>
<path d="M1536 1242 c-24 -39 -71 -402 -52 -402 22 0 73 30 74 44 1 9 3 23 4
31 1 16 38 30 72 27 11 0 26 8 33 18 17 25 76 29 67 5 -4 -8 -1 -15 4 -15 16
0 62 22 62 30 0 10 -46 51 -72 64 -13 7 -22 19 -20 28 1 9 -3 20 -9 24 -8 5
-9 3 -4 -7 7 -11 6 -12 -7 -2 -8 7 -17 11 -19 9 -2 -3 -15 4 -29 14 -15 12
-19 20 -11 20 8 0 20 -8 27 -17 12 -16 13 -14 3 12 -25 72 -104 147 -123 117z
m10 -129 c-3 -8 -2 -12 3 -9 5 3 12 -1 15 -10 4 -11 1 -14 -12 -9 -13 4 -22
-2 -30 -17 -10 -20 -11 -17 -5 17 3 22 8 43 10 48 8 13 25 -4 19 -20z m219
-132 c3 -5 1 -12 -5 -16 -5 -3 -10 1 -10 9 0 18 6 21 15 7z"/>
<path d="M808 1044 c-5 -4 -8 -19 -8 -33 1 -23 2 -24 11 -8 11 19 9 53 -3 41z"/>
<path d="M859 1027 c-1 -7 0 -28 1 -48 1 -28 -4 -41 -22 -53 -33 -24 -40 -20
-35 19 3 19 1 33 -3 30 -13 -8 -21 -104 -11 -123 7 -11 11 -12 11 -4 0 7 4 11
8 8 4 -2 62 -8 127 -11 66 -4 139 -10 162 -15 61 -11 91 -2 108 31 20 37 19
39 -10 39 -14 0 -25 5 -25 11 0 5 -4 8 -9 5 -4 -3 -30 5 -57 18 -27 13 -80 36
-119 51 -38 15 -74 31 -80 35 -21 15 -45 19 -46 7z"/>
<path d="M1340 991 c0 -6 4 -13 10 -16 6 -3 7 1 4 9 -7 18 -14 21 -14 7z"/>
<path d="M1790 931 c0 -6 4 -13 10 -16 6 -3 7 1 4 9 -7 18 -14 21 -14 7z"/>
<path d="M1595 920 c-3 -5 -2 -10 4 -10 5 0 13 5 16 10 3 6 2 10 -4 10 -5 0
-13 -4 -16 -10z"/>
<path d="M1300 860 c8 -5 20 -10 25 -10 6 0 3 5 -5 10 -8 5 -19 10 -25 10 -5
0 -3 -5 5 -10z"/>
<path d="M1351 831 c8 -11 19 -16 32 -13 18 5 18 6 -4 18 -33 18 -41 17 -28
-5z"/>
<path d="M779 788 c-3 -26 1 -134 7 -200 6 -67 6 -68 36 -68 16 0 27 4 24 9
-7 11 17 21 51 21 21 0 24 2 13 15 -7 8 -9 15 -5 15 5 0 1 8 -8 18 -8 9 -17
26 -19 37 -4 27 -30 46 -45 34 -13 -12 -13 -49 0 -49 5 0 4 -7 -3 -15 -12 -14
-15 -11 -26 22 -15 41 -19 153 -6 153 4 0 13 -5 20 -12 6 -6 14 -9 17 -7 2 3
-9 13 -25 23 -23 13 -30 14 -31 4z"/>
<path d="M1463 773 c-7 -3 -13 -9 -13 -14 0 -4 7 -5 17 -2 10 4 14 2 9 -5 -3
-6 -2 -14 4 -17 8 -5 7 -11 -1 -21 -8 -10 -8 -14 0 -14 6 0 11 -15 11 -34 0
-19 4 -37 9 -40 10 -7 9 -19 -7 -58 -10 -24 -36 -51 -30 -31 1 4 -2 26 -7 48
l-8 40 -7 -30 c-8 -38 8 -78 29 -71 9 3 53 18 99 33 79 27 82 29 77 55 -5 23
-4 26 14 21 12 -3 21 -1 21 6 0 6 -13 14 -30 18 -16 3 -30 10 -30 15 0 5 -9 6
-21 3 -18 -6 -20 -4 -14 15 5 14 3 20 -3 16 -6 -3 -18 2 -28 11 -17 17 -17 18
0 21 14 3 12 7 -11 19 -30 16 -61 22 -80 16z m67 -103 c0 -5 -5 -10 -11 -10
-5 0 -7 5 -4 10 3 6 8 10 11 10 2 0 4 -4 4 -10z"/>
<path d="M1785 722 c-13 -9 -18 -42 -7 -42 5 0 12 11 14 25 3 14 5 25 4 25 0
0 -5 -4 -11 -8z"/>
<path d="M920 685 c13 -14 26 -25 28 -25 3 0 -5 11 -18 25 -13 14 -26 25 -28
25 -3 0 5 -11 18 -25z"/>
<path d="M1700 676 c0 -2 7 -7 16 -10 8 -3 12 -2 9 4 -6 10 -25 14 -25 6z"/>
<path d="M1435 650 c-3 -5 -1 -10 4 -10 6 0 11 5 11 10 0 6 -2 10 -4 10 -3 0
-8 -4 -11 -10z"/>
<path d="M1777 593 c-4 -3 -24 -9 -44 -13 l-38 -8 33 -1 c21 -1 32 -6 32 -16
0 -22 13 -19 39 9 19 21 20 24 6 30 -20 7 -20 7 -28 -1z"/>
<path d="M820 483 c1 -5 12 -21 25 -38 22 -26 25 -27 25 -10 0 11 -9 28 -20
38 -22 18 -30 21 -30 10z"/>
<path d="M1225 480 c-4 -6 7 -54 23 -108 16 -53 33 -110 36 -126 4 -15 9 -27
11 -24 2 2 -3 35 -11 73 -20 91 -18 84 -38 130 -11 25 -13 41 -6 43 13 5 13
22 1 22 -6 0 -13 -5 -16 -10z"/>
<path d="M1268 483 c6 -2 18 -2 25 0 6 3 1 5 -13 5 -14 0 -19 -2 -12 -5z"/>
<path d="M1380 486 c0 -2 11 -6 25 -8 14 -3 25 -1 25 3 0 5 -11 9 -25 9 -14 0
-25 -2 -25 -4z"/>
<path d="M1336 473 c-9 -9 -7 -43 2 -43 10 0 32 21 32 31 0 10 -27 19 -34 12z"/>
<path d="M1376 421 c-4 -5 -2 -12 3 -15 5 -4 12 -2 15 3 4 5 2 12 -3 15 -5 4
-12 2 -15 -3z"/>
<path d="M884 388 c4 -18 15 -42 26 -52 22 -22 21 -9 -4 47 -20 46 -31 48 -22
5z"/>
<path d="M1207 374 c-3 -5 1 -15 9 -22 16 -14 18 -5 5 17 -5 7 -11 9 -14 5z"/>
<path d="M1165 361 c-21 -9 -75 -69 -75 -83 0 -4 6 -8 13 -8 29 0 125 -65 113
-77 -1 -1 -31 8 -66 21 -69 25 -169 43 -138 25 10 -5 35 -12 55 -14 39 -5 56
-11 134 -51 26 -13 52 -24 58 -24 22 0 5 109 -22 135 -7 7 -8 6 -3 -2 3 -6 0
-13 -6 -16 -16 -5 -42 49 -40 81 0 12 0 22 -1 21 -1 0 -11 -4 -22 -8z m85
-171 c0 -5 -5 -10 -11 -10 -5 0 -7 5 -4 10 3 6 8 10 11 10 2 0 4 -4 4 -10z"/>
<path d="M1431 319 c-15 -44 -14 -69 4 -70 24 -2 29 -4 43 -13 11 -7 12 -4 4
10 -5 11 -7 24 -5 31 4 11 -23 73 -31 73 -2 0 -9 -14 -15 -31z"/>
<path d="M973 293 c-26 -5 -29 -15 -10 -32 11 -8 16 -5 25 14 6 14 11 24 9 24
-1 -1 -12 -4 -24 -6z"/>
<path d="M1456 203 c-9 -23 -4 -24 22 -4 21 16 22 17 3 18 -11 1 -22 -5 -25
-14z"/>
<path d="M1330 200 c-8 -5 -11 -12 -7 -16 4 -4 13 -2 19 4 15 15 7 24 -12 12z"/>
</g>
</svg>
